<svg width="108" height="14" viewBox="0 0 108 14" fill="none" xmlns="http://www.w3.org/2000/svg">
<path d="M6.736 13.192C5.52 13.192 4.464 12.968 3.568 12.52C2.672 12.0613 1.984 11.4427 1.504 10.664C1.024 9.88533 0.784 9.02133 0.784 8.072C0.784 7.05867 1.05067 6.152 1.584 5.352C2.128 4.552 2.87467 3.93333 3.824 3.496C4.77333 3.048 5.84 2.824 7.024 2.824C7.536 2.824 8.048 2.86667 8.56 2.952C9.072 3.02667 9.48267 3.128 9.792 3.256C9.90933 3.29867 9.97333 3.336 9.984 3.368C10.0053 3.38933 10.0213 3.47467 10.032 3.624L10.24 5.848C10.24 5.88 10.208 5.90133 10.144 5.912C10.0907 5.92267 10.0587 5.90667 10.048 5.864C9.90933 5.512 9.68533 5.128 9.376 4.712C9.06667 4.296 8.66133 3.93333 8.16 3.624C7.65867 3.31467 7.07733 3.16 6.416 3.16C5.73333 3.16 5.10933 3.34667 4.544 3.72C3.97867 4.09333 3.53067 4.62667 3.2 5.32C2.88 6.01333 2.72 6.81867 2.72 7.736C2.72 8.73867 2.90667 9.63467 3.28 10.424C3.664 11.2133 4.192 11.8267 4.864 12.264C5.536 12.7013 6.29333 12.92 7.136 12.92C7.57333 12.92 7.90933 12.872 8.144 12.776C8.37867 12.68 8.54933 12.4933 8.656 12.216C8.76267 11.9387 8.816 11.528 8.816 10.984C8.816 10.4293 8.784 10.0453 8.72 9.832C8.656 9.608 8.51733 9.45867 8.304 9.384C8.10133 9.30933 7.73867 9.272 7.216 9.272C7.152 9.272 7.12 9.22933 7.12 9.144C7.12 9.112 7.12533 9.08533 7.136 9.064C7.15733 9.032 7.17867 9.016 7.2 9.016C8.10667 9.06933 8.84267 9.096 9.408 9.096C9.952 9.096 10.5173 9.08 11.104 9.048C11.1467 9.048 11.168 9.08533 11.168 9.16C11.1787 9.23467 11.1573 9.272 11.104 9.272C10.912 9.26133 10.7733 9.29867 10.688 9.384C10.6133 9.45867 10.5653 9.61867 10.544 9.864C10.5227 10.1093 10.512 10.536 10.512 11.144C10.512 11.624 10.528 11.9653 10.56 12.168C10.6027 12.3707 10.624 12.4987 10.624 12.552C10.624 12.616 10.6133 12.6587 10.592 12.68C10.5707 12.7013 10.5227 12.7227 10.448 12.744C9.072 13.0427 7.83467 13.192 6.736 13.192ZM12.2631 13C12.2418 13 12.2311 12.968 12.2311 12.904C12.2311 12.84 12.2418 12.808 12.2631 12.808C12.5938 12.808 12.8178 12.7333 12.9351 12.584C13.0631 12.424 13.1271 12.1307 13.1271 11.704L13.1431 3.576C13.1431 3.20267 13.1058 2.936 13.0311 2.776C12.9671 2.616 12.8498 2.536 12.6791 2.536C12.5405 2.536 12.3378 2.59467 12.0711 2.712H12.0551C12.0231 2.712 11.9911 2.68533 11.9591 2.632C11.9378 2.568 11.9378 2.53067 11.9591 2.52L14.3111 1.416L14.3751 1.4C14.4285 1.4 14.4871 1.42667 14.5511 1.48C14.6151 1.52267 14.6471 1.56533 14.6471 1.608V11.704C14.6471 12.1307 14.7058 12.424 14.8231 12.584C14.9405 12.7333 15.1645 12.808 15.4951 12.808C15.5378 12.808 15.5591 12.84 15.5591 12.904C15.5591 12.968 15.5378 13 15.4951 13C15.2285 13 15.0151 12.9947 14.8551 12.984L13.8791 12.968L12.9191 12.984C12.7591 12.9947 12.5405 13 12.2631 13ZM19.7764 13.208C19.115 13.208 18.5337 13.0587 18.0324 12.76C17.5417 12.4507 17.163 12.04 16.8964 11.528C16.6297 11.0053 16.4964 10.44 16.4964 9.832C16.4964 9.13867 16.6724 8.552 17.0244 8.072C17.3764 7.58133 17.8244 7.21867 18.3684 6.984C18.9124 6.73867 19.4724 6.616 20.0484 6.616C20.7097 6.616 21.2857 6.77067 21.7764 7.08C22.267 7.38933 22.6404 7.8 22.8964 8.312C23.163 8.81333 23.2964 9.352 23.2964 9.928C23.2964 10.568 23.1364 11.1387 22.8164 11.64C22.4964 12.1307 22.0644 12.5147 21.5204 12.792C20.987 13.0693 20.4057 13.208 19.7764 13.208ZM20.2564 12.872C20.6724 12.872 20.987 12.6693 21.2004 12.264C21.4244 11.848 21.5364 11.256 21.5364 10.488C21.5364 9.74133 21.4404 9.10133 21.2484 8.568C21.0564 8.03467 20.8057 7.63467 20.4964 7.368C20.187 7.09067 19.8564 6.952 19.5044 6.952C18.651 6.952 18.2244 7.71467 18.2244 9.24C18.2244 9.95467 18.315 10.5893 18.4964 11.144C18.6777 11.688 18.923 12.1147 19.2324 12.424C19.5417 12.7227 19.883 12.872 20.2564 12.872ZM28.1005 13.208C27.6418 13.208 27.1938 13.128 26.7565 12.968C26.3192 12.7973 25.9245 12.552 25.5725 12.232L26.5965 10.36C26.5965 10.9467 26.6978 11.432 26.9005 11.816C27.1032 12.1893 27.3485 12.4613 27.6365 12.632C27.9245 12.8027 28.2072 12.888 28.4845 12.888C28.9432 12.888 29.2952 12.6533 29.5405 12.184C29.7858 11.7147 29.9085 11.0587 29.9085 10.216C29.9085 9.288 29.7538 8.6 29.4445 8.152C29.1352 7.69333 28.7032 7.464 28.1485 7.464C27.5832 7.464 26.9965 7.69867 26.3885 8.168L26.2445 8.04C26.6818 7.592 27.0978 7.24533 27.4925 7C27.8872 6.744 28.3565 6.616 28.9005 6.616C29.3805 6.616 29.8232 6.728 30.2285 6.952C30.6338 7.176 30.9538 7.512 31.1885 7.96C31.4338 8.408 31.5565 8.952 31.5565 9.592C31.5565 10.36 31.3912 11.016 31.0605 11.56C30.7405 12.104 30.3138 12.5147 29.7805 12.792C29.2578 13.0693 28.6978 13.208 28.1005 13.208ZM24.3565 13.112C24.3138 13.112 24.2872 13.0907 24.2765 13.048C24.2658 13.0053 24.2818 12.9787 24.3245 12.968C24.5805 12.8187 24.7725 12.616 24.9005 12.36C25.0392 12.0933 25.1085 11.7573 25.1085 11.352V3.576C25.1085 3.20267 25.0712 2.936 24.9965 2.776C24.9325 2.616 24.8098 2.536 24.6285 2.536C24.4898 2.536 24.2925 2.59467 24.0365 2.712H24.0205C23.9778 2.712 23.9458 2.68533 23.9245 2.632C23.9032 2.568 23.9032 2.53067 23.9245 2.52L26.2605 1.416L26.3405 1.4C26.3938 1.4 26.4472 1.42667 26.5005 1.48C26.5645 1.52267 26.5965 1.56533 26.5965 1.608V12.104L24.3885 13.112H24.3565ZM34.9745 13.208C34.5372 13.208 34.1318 13.1013 33.7585 12.888C33.3958 12.664 33.1078 12.3387 32.8945 11.912C32.6812 11.4853 32.5745 10.9733 32.5745 10.376C32.5745 9.61867 32.7505 8.95733 33.1025 8.392C33.4545 7.816 33.9185 7.37867 34.4945 7.08C35.0705 6.78133 35.6892 6.632 36.3505 6.632C37.1292 6.632 37.7958 6.87733 38.3505 7.368L37.1825 8.392C37.1825 7.976 37.0652 7.63467 36.8305 7.368C36.6065 7.10133 36.3078 6.968 35.9345 6.968C35.4012 6.968 34.9798 7.23467 34.6705 7.768C34.3718 8.30133 34.2225 8.98933 34.2225 9.832C34.2225 10.632 34.3558 11.256 34.6225 11.704C34.8998 12.1413 35.2892 12.36 35.7905 12.36C36.2918 12.36 36.8465 12.1253 37.4545 11.656L37.5825 11.768C37.1345 12.2267 36.7132 12.584 36.3185 12.84C35.9345 13.0853 35.4865 13.208 34.9745 13.208ZM37.6145 13.224C37.4972 13.224 37.3958 13.0853 37.3105 12.808C37.2252 12.5307 37.1825 12.1573 37.1825 11.688V7.256C37.5345 7.17067 37.8012 7.09067 37.9825 7.016C38.1745 6.93067 38.3558 6.80267 38.5265 6.632C38.5372 6.62133 38.5532 6.616 38.5745 6.616C38.5958 6.616 38.6172 6.62667 38.6385 6.648C38.6705 6.65867 38.6865 6.67467 38.6865 6.696V11.256C38.6865 11.576 38.7185 11.8053 38.7825 11.944C38.8572 12.072 38.9745 12.136 39.1345 12.136C39.2732 12.136 39.4918 12.0773 39.7905 11.96H39.8225C39.8545 11.96 39.8812 11.9867 39.9025 12.04C39.9345 12.0933 39.9345 12.1253 39.9025 12.136L37.6945 13.208C37.6732 13.2187 37.6465 13.224 37.6145 13.224ZM40.4663 13C40.4449 13 40.4342 12.968 40.4342 12.904C40.4342 12.84 40.4449 12.808 40.4663 12.808C40.7969 12.808 41.0209 12.7333 41.1383 12.584C41.2663 12.424 41.3303 12.1307 41.3303 11.704L41.3463 3.576C41.3463 3.20267 41.3089 2.936 41.2343 2.776C41.1703 2.616 41.0529 2.536 40.8823 2.536C40.7436 2.536 40.5409 2.59467 40.2743 2.712H40.2583C40.2263 2.712 40.1943 2.68533 40.1623 2.632C40.1409 2.568 40.1409 2.53067 40.1623 2.52L42.5143 1.416L42.5783 1.4C42.6316 1.4 42.6903 1.42667 42.7543 1.48C42.8183 1.52267 42.8503 1.56533 42.8503 1.608V11.704C42.8503 12.1307 42.9089 12.424 43.0263 12.584C43.1436 12.7333 43.3676 12.808 43.6983 12.808C43.7409 12.808 43.7623 12.84 43.7623 12.904C43.7623 12.968 43.7409 13 43.6983 13C43.4316 13 43.2183 12.9947 43.0583 12.984L42.0823 12.968L41.1223 12.984C40.9623 12.9947 40.7436 13 40.4663 13ZM49.7686 5.61719H48.8823C48.5063 5.61719 48.2354 5.52197 48.0693 5.33154C47.9033 5.13623 47.8203 4.87988 47.8203 4.5625C47.8203 3.85938 48.3452 3.50781 49.395 3.50781C50.3813 3.50781 51.1235 3.6543 51.6216 3.94727L51.1968 4.26953C50.855 4.11328 50.2544 4.03516 49.395 4.03516C48.9751 4.03516 48.6919 4.08154 48.5454 4.17432C48.4038 4.26709 48.333 4.39648 48.333 4.5625C48.333 4.72852 48.3721 4.85791 48.4502 4.95068C48.5283 5.04346 48.6724 5.08984 48.8823 5.08984H49.7905C50.4497 5.08984 51.043 5.20215 51.5703 5.42676C52.1025 5.65137 52.5396 5.95898 52.8813 6.34961C53.2231 6.73535 53.4844 7.18213 53.665 7.68994C53.8457 8.19287 53.936 8.73242 53.936 9.30859C53.936 9.77734 53.8701 10.2217 53.7383 10.6416C53.6064 11.0615 53.4062 11.4473 53.1377 11.7988C52.874 12.1504 52.5542 12.4556 52.1782 12.7144C51.8071 12.9683 51.3628 13.166 50.8452 13.3076C50.3325 13.4541 49.7759 13.5273 49.1753 13.5273C48.2329 13.5273 47.3491 13.3833 46.5239 13.0952C45.7036 12.812 45.02 12.4141 44.4731 11.9014L44.8979 11.5864C45.396 12.0356 46.0186 12.3848 46.7656 12.6338C47.5176 12.8779 48.3208 13 49.1753 13C49.8442 13 50.4473 12.9048 50.9844 12.7144C51.5264 12.519 51.9707 12.2529 52.3174 11.916C52.6689 11.5791 52.9375 11.1885 53.123 10.7441C53.3135 10.2998 53.4087 9.82129 53.4087 9.30859C53.4087 8.62988 53.272 8.01709 52.9985 7.47021C52.7251 6.91846 52.3076 6.47168 51.7461 6.12988C51.1895 5.78809 50.5303 5.61719 49.7686 5.61719ZM48.8823 6.14453H49.7173C50.7085 6.14453 51.4824 6.44727 52.0391 7.05273C52.6006 7.6582 52.8813 8.41016 52.8813 9.30859C52.8813 10.2217 52.5566 10.9785 51.9072 11.5791C51.2578 12.1748 50.3472 12.4727 49.1753 12.4727C48.394 12.4727 47.6641 12.3652 46.9854 12.1504C46.3066 11.9355 45.7427 11.6328 45.2935 11.2422L45.7036 10.9126C46.104 11.2397 46.6069 11.4937 47.2124 11.6743C47.8228 11.855 48.4771 11.9453 49.1753 11.9453C50.2056 11.9453 50.9917 11.6987 51.5337 11.2056C52.0806 10.7124 52.354 10.0801 52.354 9.30859C52.354 8.54688 52.1245 7.91699 51.6655 7.41895C51.2114 6.9209 50.5596 6.67188 49.71 6.67188H48.8823C48.1694 6.67188 47.6348 6.47656 47.2783 6.08594C46.9219 5.69531 46.7437 5.1875 46.7437 4.5625C46.7437 3.9375 46.9634 3.42969 47.4028 3.03906C47.8472 2.64844 48.5112 2.45312 49.395 2.45312C50.0151 2.45312 50.5913 2.52637 51.1235 2.67285C51.6558 2.81445 52.0952 3.01953 52.4419 3.28809L52.0244 3.61035C51.4141 3.19043 50.5376 2.98047 49.395 2.98047C48.6577 2.98047 48.1182 3.12695 47.7764 3.41992C47.4395 3.70801 47.271 4.08887 47.271 4.5625C47.271 5.04102 47.3955 5.42432 47.6445 5.7124C47.8984 6.00049 48.311 6.14453 48.8823 6.14453ZM48.8823 7.19922H49.688C50.4009 7.19922 50.9355 7.39697 51.292 7.79248C51.6484 8.18799 51.8267 8.69336 51.8267 9.30859C51.8267 9.93359 51.6045 10.4414 51.1602 10.832C50.7207 11.2227 50.0591 11.418 49.1753 11.418C48.5552 11.418 47.9766 11.3472 47.4395 11.2056C46.9072 11.0591 46.4678 10.8516 46.1211 10.583L46.5386 10.2607C47.1489 10.6807 48.0278 10.8906 49.1753 10.8906C49.9126 10.8906 50.4497 10.7466 50.7866 10.4585C51.1284 10.1655 51.2993 9.78223 51.2993 9.30859C51.2993 8.83496 51.1724 8.4541 50.9185 8.16602C50.6646 7.87305 50.252 7.72656 49.6807 7.72656H48.8823C47.8813 7.72656 47.0977 7.42871 46.5312 6.83301C45.9697 6.23242 45.689 5.47559 45.689 4.5625C45.689 3.64941 46.0137 2.89502 46.6631 2.29932C47.3125 1.69873 48.2231 1.39844 49.395 1.39844C50.1763 1.39844 50.9038 1.50586 51.5776 1.7207C52.2563 1.93555 52.8203 2.23828 53.2695 2.62891L52.8594 2.9585C52.459 2.63135 51.9561 2.37744 51.3506 2.19678C50.7451 2.01611 50.0933 1.92578 49.395 1.92578C48.3647 1.92578 47.5762 2.17236 47.0293 2.66553C46.4873 3.15869 46.2163 3.79102 46.2163 4.5625C46.2163 5.3291 46.4458 5.96143 46.9048 6.45947C47.3638 6.95264 48.0229 7.19922 48.8823 7.19922ZM48.8823 8.25391H49.688C50.064 8.25391 50.335 8.35156 50.501 8.54688C50.667 8.74219 50.75 8.99609 50.75 9.30859C50.75 10.0117 50.2251 10.3633 49.1753 10.3633C48.1841 10.3633 47.4395 10.2168 46.9414 9.92383L47.3662 9.60156C47.708 9.75781 48.311 9.83594 49.1753 9.83594C49.5952 9.83594 49.876 9.78955 50.0176 9.69678C50.1641 9.604 50.2373 9.47461 50.2373 9.30859C50.2373 9.14746 50.1958 9.02051 50.1128 8.92773C50.0347 8.83008 49.8882 8.78125 49.6733 8.78125H48.8823C48.2085 8.78125 47.5981 8.67139 47.0513 8.45166C46.5093 8.23193 46.0625 7.9292 45.7109 7.54346C45.3643 7.15771 45.0981 6.71094 44.9126 6.20312C44.7271 5.69531 44.6343 5.14844 44.6343 4.5625C44.6343 4.09375 44.7002 3.64941 44.832 3.22949C44.9639 2.80957 45.1616 2.42383 45.4253 2.07227C45.6938 1.7207 46.0137 1.41797 46.3848 1.16406C46.7607 0.905273 47.2051 0.705078 47.7178 0.563477C48.2354 0.416992 48.7944 0.34375 49.395 0.34375C50.3374 0.34375 51.2188 0.487793 52.0391 0.775879C52.8594 1.05908 53.543 1.45703 54.0898 1.96973L53.665 2.28467C53.167 1.83545 52.5444 1.48877 51.7974 1.24463C51.0503 0.995605 50.2495 0.871094 49.395 0.871094C48.7261 0.871094 48.1206 0.96875 47.5786 1.16406C47.0415 1.35449 46.5972 1.61816 46.2456 1.95508C45.8989 2.29199 45.6304 2.68262 45.4399 3.12695C45.2544 3.57129 45.1616 4.0498 45.1616 4.5625C45.1616 5.25098 45.3008 5.87109 45.5791 6.42285C45.8574 6.97461 46.2822 7.41895 46.8535 7.75586C47.4248 8.08789 48.1011 8.25391 48.8823 8.25391ZM59.1362 6.23975C58.7261 6.6499 58.521 7.14551 58.521 7.72656C58.521 8.30762 58.7261 8.80566 59.1362 9.2207C59.5513 9.63086 60.0493 9.83594 60.6304 9.83594C61.2114 9.83594 61.707 9.63086 62.1172 9.2207C62.5322 8.80566 62.7397 8.30762 62.7397 7.72656C62.7397 7.14551 62.5322 6.6499 62.1172 6.23975C61.707 5.82471 61.2114 5.61719 60.6304 5.61719C60.0493 5.61719 59.5513 5.82471 59.1362 6.23975ZM58.7627 9.59424C58.25 9.07666 57.9937 8.4541 57.9937 7.72656C57.9937 6.99902 58.25 6.37891 58.7627 5.86621C59.2803 5.34863 59.9028 5.08984 60.6304 5.08984C61.3579 5.08984 61.978 5.34863 62.4907 5.86621C63.0083 6.37891 63.2671 6.99902 63.2671 7.72656C63.2671 8.4541 63.0083 9.07666 62.4907 9.59424C61.978 10.1069 61.3579 10.3633 60.6304 10.3633C59.9028 10.3633 59.2803 10.1069 58.7627 9.59424ZM58.3892 5.49268C57.7739 6.11279 57.4663 6.85742 57.4663 7.72656C57.4663 8.5957 57.7739 9.34033 58.3892 9.96045C59.0093 10.5806 59.7563 10.8906 60.6304 10.8906C61.5044 10.8906 62.249 10.5806 62.8643 9.96045C63.4844 9.34033 63.7944 8.5957 63.7944 7.72656C63.7944 6.85742 63.4844 6.11279 62.8643 5.49268C62.249 4.87256 61.5044 4.5625 60.6304 4.5625C59.7563 4.5625 59.0093 4.87256 58.3892 5.49268ZM57.4297 9.57959C57.1025 9.01318 56.939 8.39551 56.939 7.72656C56.939 7.05762 57.1025 6.43994 57.4297 5.87354C57.7617 5.30713 58.2109 4.86035 58.7773 4.5332C59.3438 4.20117 59.9614 4.03516 60.6304 4.03516C61.2993 4.03516 61.917 4.20117 62.4834 4.5332C63.0498 4.86035 63.4966 5.30713 63.8237 5.87354C64.1558 6.43994 64.3218 7.05762 64.3218 7.72656C64.3218 8.39551 64.1558 9.01318 63.8237 9.57959C63.4966 10.146 63.0498 10.5952 62.4834 10.9272C61.917 11.2544 61.2993 11.418 60.6304 11.418C59.9614 11.418 59.3438 11.2544 58.7773 10.9272C58.2109 10.5952 57.7617 10.146 57.4297 9.57959ZM56.7412 6.09326C56.5215 6.61084 56.4116 7.15527 56.4116 7.72656C56.4116 8.29785 56.5215 8.84473 56.7412 9.36719C56.9658 9.88477 57.2661 10.334 57.6421 10.7148C58.0229 11.0908 58.4722 11.3911 58.9897 11.6157C59.5122 11.8354 60.0591 11.9453 60.6304 11.9453C61.2017 11.9453 61.7461 11.8354 62.2637 11.6157C62.7861 11.3911 63.2354 11.0908 63.6113 10.7148C63.9922 10.334 64.2925 9.88477 64.5122 9.36719C64.7368 8.84473 64.8491 8.29785 64.8491 7.72656C64.8491 7.15527 64.7368 6.61084 64.5122 6.09326C64.2925 5.5708 63.9922 5.12158 63.6113 4.74561C63.2354 4.36475 62.7861 4.06445 62.2637 3.84473C61.7461 3.62012 61.2017 3.50781 60.6304 3.50781C60.0591 3.50781 59.5122 3.62012 58.9897 3.84473C58.4722 4.06445 58.0229 4.36475 57.6421 4.74561C57.2661 5.12158 56.9658 5.5708 56.7412 6.09326ZM56.2578 9.57227C56.0088 8.98633 55.8843 8.37109 55.8843 7.72656C55.8843 7.08203 56.0088 6.4668 56.2578 5.88086C56.5117 5.29492 56.8486 4.79199 57.2686 4.37207C57.6934 3.94727 58.1987 3.61035 58.7847 3.36133C59.3706 3.10742 59.9858 2.98047 60.6304 2.98047C61.2749 2.98047 61.8901 3.10742 62.4761 3.36133C63.062 3.61035 63.5649 3.94727 63.9849 4.37207C64.4097 4.79199 64.7466 5.29492 64.9956 5.88086C65.2495 6.4668 65.3765 7.08203 65.3765 7.72656C65.3765 8.37109 65.2495 8.98633 64.9956 9.57227C64.7466 10.1582 64.4097 10.6636 63.9849 11.0884C63.5649 11.5083 63.062 11.8452 62.4761 12.0991C61.8901 12.3481 61.2749 12.4727 60.6304 12.4727C59.9858 12.4727 59.3706 12.3481 58.7847 12.0991C58.1987 11.8452 57.6934 11.5083 57.2686 11.0884C56.8486 10.6636 56.5117 10.1582 56.2578 9.57227ZM55.7744 5.68311C55.4961 6.33252 55.3569 7.01367 55.3569 7.72656C55.3569 8.43945 55.4961 9.12305 55.7744 9.77734C56.0527 10.4268 56.4263 10.9883 56.895 11.4619C57.3687 11.9307 57.9302 12.3042 58.5796 12.5825C59.2339 12.8608 59.9175 13 60.6304 13C61.3433 13 62.0244 12.8608 62.6738 12.5825C63.3281 12.3042 63.8896 11.9307 64.3584 11.4619C64.832 10.9883 65.208 10.4268 65.4863 9.77734C65.7646 9.12305 65.9038 8.43945 65.9038 7.72656C65.9038 7.01367 65.7646 6.33252 65.4863 5.68311C65.208 5.02881 64.832 4.46729 64.3584 3.99854C63.8896 3.5249 63.3281 3.14893 62.6738 2.87061C62.0244 2.59229 61.3433 2.45312 60.6304 2.45312C59.9175 2.45312 59.2339 2.59229 58.5796 2.87061C57.9302 3.14893 57.3687 3.5249 56.895 3.99854C56.4263 4.46729 56.0527 5.02881 55.7744 5.68311ZM55.291 9.98242C54.9834 9.26465 54.8296 8.5127 54.8296 7.72656C54.8296 6.94043 54.9834 6.19092 55.291 5.47803C55.5986 4.76025 56.0112 4.14258 56.5288 3.625C57.0464 3.10742 57.6616 2.69482 58.3745 2.38721C59.0923 2.07959 59.8442 1.92578 60.6304 1.92578C61.4165 1.92578 62.166 2.07959 62.8789 2.38721C63.5967 2.69482 64.2144 3.10742 64.7319 3.625C65.2495 4.14258 65.6621 4.76025 65.9697 5.47803C66.2773 6.19092 66.4312 6.94043 66.4312 7.72656C66.4312 8.5127 66.2773 9.26465 65.9697 9.98242C65.6621 10.6953 65.2495 11.3105 64.7319 11.8281C64.2144 12.3457 63.5967 12.7583 62.8789 13.0659C62.166 13.3735 61.4165 13.5273 60.6304 13.5273C59.8442 13.5273 59.0923 13.3735 58.3745 13.0659C57.6616 12.7583 57.0464 12.3457 56.5288 11.8281C56.0112 11.3105 55.5986 10.6953 55.291 9.98242ZM67.6177 2.45312H68.145V13H67.6177V2.45312ZM70.7817 2.45312H71.3091V10.3633H75.1982V10.8906H71.3091V11.418H75.1982V11.9453H71.3091V12.4727H75.1982V13H70.7817V2.45312ZM69.7271 2.45312H70.2544V13H69.7271V2.45312ZM68.6724 2.45312H69.1997V13H68.6724V2.45312ZM82.5136 2.824C83.015 2.824 83.5216 2.86667 84.0336 2.952C84.5563 3.02667 84.9723 3.128 85.2816 3.256C85.3776 3.288 85.4363 3.33067 85.4576 3.384C85.4896 3.42667 85.511 3.50667 85.5216 3.624L85.7296 5.848C85.7296 5.88 85.703 5.90133 85.6496 5.912C85.5963 5.92267 85.559 5.90667 85.5376 5.864C85.239 4.98933 84.8123 4.32267 84.2576 3.864C83.703 3.39467 83.0363 3.16 82.2576 3.16C81.5323 3.16 80.8816 3.35733 80.3056 3.752C79.7403 4.136 79.2923 4.69067 78.9616 5.416C78.6416 6.14133 78.4816 6.98933 78.4816 7.96C78.4816 8.94133 78.647 9.80533 78.9776 10.552C79.319 11.288 79.783 11.8587 80.3696 12.264C80.967 12.6587 81.6496 12.856 82.4176 12.856C83.1536 12.856 83.7723 12.6587 84.2736 12.264C84.775 11.8587 85.2496 11.1973 85.6976 10.28C85.7083 10.248 85.7403 10.2373 85.7936 10.248C85.847 10.2587 85.8736 10.28 85.8736 10.312L85.6336 12.296C85.6123 12.424 85.591 12.5093 85.5696 12.552C85.5483 12.584 85.4896 12.6213 85.3936 12.664C84.4123 13.016 83.4203 13.192 82.4176 13.192C81.2763 13.192 80.2523 12.9787 79.3456 12.552C78.4496 12.1147 77.7456 11.5067 77.2336 10.728C76.7216 9.94933 76.4656 9.064 76.4656 8.072C76.4656 7.05867 76.727 6.15733 77.2496 5.368C77.783 4.568 78.5083 3.944 79.4256 3.496C80.3536 3.048 81.383 2.824 82.5136 2.824ZM86.9083 13C86.8869 13 86.8763 12.968 86.8763 12.904C86.8763 12.84 86.8869 12.808 86.9083 12.808C87.2389 12.808 87.4629 12.7333 87.5803 12.584C87.7083 12.424 87.7723 12.1307 87.7723 11.704V3.576C87.7723 3.20267 87.7349 2.936 87.6603 2.776C87.5963 2.616 87.4789 2.536 87.3083 2.536C87.1589 2.536 86.9563 2.59467 86.7003 2.712H86.6843C86.6523 2.712 86.6203 2.68533 86.5883 2.632C86.5669 2.568 86.5669 2.53067 86.5883 2.52L88.9243 1.416L89.0043 1.4C89.0576 1.4 89.1109 1.42667 89.1643 1.48C89.2283 1.52267 89.2603 1.56533 89.2603 1.608V11.704C89.2603 12.1307 89.3189 12.424 89.4363 12.584C89.5643 12.7333 89.7936 12.808 90.1243 12.808C90.1669 12.808 90.1883 12.84 90.1883 12.904C90.1883 12.968 90.1669 13 90.1243 13C89.8469 13 89.6229 12.9947 89.4523 12.984L88.5243 12.968L87.5643 12.984C87.4043 12.9947 87.1856 13 86.9083 13ZM91.2123 13C91.1909 13 91.1803 12.968 91.1803 12.904C91.1803 12.84 91.1909 12.808 91.2123 12.808C91.5429 12.808 91.7669 12.7333 91.8843 12.584C92.0123 12.424 92.0763 12.1307 92.0763 11.704V9.4C92.0763 8.824 91.9696 8.39733 91.7563 8.12C91.5429 7.84267 91.2123 7.704 90.7643 7.704C90.4336 7.704 90.1029 7.78933 89.7723 7.96C89.4416 8.12 89.1803 8.33333 88.9883 8.6L88.8923 8.408C89.7349 7.224 90.6683 6.632 91.6923 6.632C92.2683 6.632 92.7216 6.81867 93.0523 7.192C93.3936 7.55467 93.5643 8.03467 93.5643 8.632V11.704C93.5643 12.1307 93.6229 12.424 93.7403 12.584C93.8683 12.7333 94.0976 12.808 94.4283 12.808C94.4709 12.808 94.4923 12.84 94.4923 12.904C94.4923 12.968 94.4709 13 94.4283 13C94.1509 13 93.9269 12.9947 93.7563 12.984L92.8283 12.968L91.8683 12.984C91.7083 12.9947 91.4896 13 91.2123 13ZM97.6249 13.208C97.1876 13.208 96.7822 13.1013 96.4089 12.888C96.0462 12.664 95.7582 12.3387 95.5449 11.912C95.3316 11.4853 95.2249 10.9733 95.2249 10.376C95.2249 9.61867 95.4009 8.95733 95.7529 8.392C96.1049 7.816 96.5689 7.37867 97.1449 7.08C97.7209 6.78133 98.3396 6.632 99.0009 6.632C99.7796 6.632 100.446 6.87733 101.001 7.368L99.8329 8.392C99.8329 7.976 99.7156 7.63467 99.4809 7.368C99.2569 7.10133 98.9582 6.968 98.5849 6.968C98.0516 6.968 97.6302 7.23467 97.3209 7.768C97.0222 8.30133 96.8729 8.98933 96.8729 9.832C96.8729 10.632 97.0062 11.256 97.2729 11.704C97.5502 12.1413 97.9396 12.36 98.4409 12.36C98.9422 12.36 99.4969 12.1253 100.105 11.656L100.233 11.768C99.7849 12.2267 99.3636 12.584 98.9689 12.84C98.5849 13.0853 98.1369 13.208 97.6249 13.208ZM100.265 13.224C100.148 13.224 100.046 13.0853 99.9609 12.808C99.8756 12.5307 99.8329 12.1573 99.8329 11.688V7.256C100.185 7.17067 100.452 7.09067 100.633 7.016C100.825 6.93067 101.006 6.80267 101.177 6.632C101.188 6.62133 101.204 6.616 101.225 6.616C101.246 6.616 101.268 6.62667 101.289 6.648C101.321 6.65867 101.337 6.67467 101.337 6.696V11.256C101.337 11.576 101.369 11.8053 101.433 11.944C101.508 12.072 101.625 12.136 101.785 12.136C101.924 12.136 102.142 12.0773 102.441 11.96H102.473C102.505 11.96 102.532 11.9867 102.553 12.04C102.585 12.0933 102.585 12.1253 102.553 12.136L100.345 13.208C100.324 13.2187 100.297 13.224 100.265 13.224ZM105.501 13.192C105.031 13.192 104.631 13.08 104.301 12.856C103.97 12.632 103.805 12.2533 103.805 11.72V8.168C103.805 7.83733 103.746 7.608 103.629 7.48C103.511 7.352 103.298 7.288 102.989 7.288C102.978 7.288 102.962 7.272 102.941 7.24C102.93 7.208 102.925 7.176 102.925 7.144C102.925 7.10133 102.93 7.06933 102.941 7.048C102.951 7.016 102.967 7 102.989 7C103.533 6.97867 103.97 6.86133 104.301 6.648C104.642 6.43467 104.903 6.10933 105.085 5.672C105.106 5.62933 105.149 5.608 105.213 5.608C105.287 5.608 105.325 5.62933 105.325 5.672V11.192C105.325 11.5973 105.426 11.896 105.629 12.088C105.842 12.28 106.119 12.376 106.461 12.376C106.887 12.376 107.303 12.216 107.709 11.896L107.741 11.88C107.783 11.88 107.815 11.9013 107.837 11.944C107.869 11.9867 107.869 12.0187 107.837 12.04C107.442 12.4347 107.058 12.728 106.685 12.92C106.311 13.1013 105.917 13.192 105.501 13.192ZM107.341 7.64C106.562 7.46933 105.703 7.384 104.765 7.384V6.968C105.458 6.968 106.338 6.91467 107.405 6.808C107.426 6.808 107.447 6.85067 107.469 6.936C107.501 7.01067 107.517 7.096 107.517 7.192C107.517 7.29867 107.495 7.40533 107.453 7.512C107.421 7.608 107.383 7.65067 107.341 7.64Z" fill="white"/>
</svg>
